<svg width="620" height="448" viewBox="0 0 620 448" fill="none" xmlns="http://www.w3.org/2000/svg">
<rect x="27" y="132" width="89" height="260" rx="24" fill="white" fill-opacity="0.08"/>
<rect x="28" y="133" width="87" height="258" rx="23" stroke="white" stroke-opacity="0.08" stroke-width="2"/>
<rect x="245" y="92" width="89" height="260" rx="24" fill="white" fill-opacity="0.08"/>
<rect x="246" y="93" width="87" height="258" rx="23" stroke="white" stroke-opacity="0.08" stroke-width="2"/>
<rect x="354" y="72" width="89" height="260" rx="24" fill="white" fill-opacity="0.08"/>
<rect x="355" y="73" width="87" height="258" rx="23" stroke="white" stroke-opacity="0.08" stroke-width="2"/>
<g filter="url(#filter0_d_1_629)">
<rect x="463" y="52" width="89" height="260" rx="24" fill="url(#paint0_linear_1_629)"/>
</g>
<rect x="136" y="112" width="89" height="260" rx="24" fill="white" fill-opacity="0.08"/>
<rect x="137" y="113" width="87" height="258" rx="23" stroke="white" stroke-opacity="0.08" stroke-width="2"/>
<path d="M55.4347 373V358.455H64.7528V360.663H58.0696V364.612H64.1136V366.821H58.0696V373H55.4347ZM70.6685 373.213C69.5748 373.213 68.6302 372.986 67.8347 372.531C67.044 372.072 66.4356 371.423 66.0094 370.585C65.5833 369.742 65.3702 368.75 65.3702 367.609C65.3702 366.487 65.5833 365.502 66.0094 364.655C66.4403 363.803 67.0416 363.14 67.8134 362.666C68.5852 362.188 69.4919 361.949 70.5336 361.949C71.2059 361.949 71.8404 362.058 72.437 362.276C73.0383 362.489 73.5686 362.82 74.0279 363.27C74.4919 363.72 74.8565 364.293 75.1217 364.989C75.3868 365.68 75.5194 366.504 75.5194 367.46V368.249H66.5776V366.516H73.0549C73.0502 366.023 72.9436 365.585 72.7353 365.202C72.527 364.813 72.2358 364.508 71.8617 364.286C71.4924 364.063 71.0615 363.952 70.5691 363.952C70.0435 363.952 69.5819 364.08 69.1842 364.335C68.7864 364.586 68.4763 364.918 68.2538 365.33C68.036 365.737 67.9247 366.184 67.92 366.672V368.185C67.92 368.819 68.036 369.364 68.268 369.818C68.5 370.268 68.8243 370.614 69.241 370.855C69.6576 371.092 70.1453 371.21 70.704 371.21C71.0781 371.21 71.4166 371.158 71.7197 371.054C72.0227 370.945 72.2855 370.786 72.508 370.578C72.7306 370.37 72.8987 370.112 73.0123 369.804L75.4129 370.074C75.2613 370.708 74.9725 371.262 74.5464 371.736C74.125 372.205 73.5852 372.569 72.9271 372.83C72.2689 373.085 71.5161 373.213 70.6685 373.213ZM77.4081 373V358.455H79.9791V363.895H80.0857C80.2182 363.63 80.4053 363.348 80.6467 363.05C80.8882 362.747 81.2149 362.489 81.6268 362.276C82.0388 362.058 82.5643 361.949 83.2036 361.949C84.0464 361.949 84.8063 362.164 85.4834 362.595C86.1652 363.021 86.705 363.653 87.1027 364.491C87.5052 365.325 87.7064 366.348 87.7064 367.56C87.7064 368.758 87.5099 369.776 87.1169 370.614C86.7239 371.452 86.1889 372.091 85.5118 372.531C84.8347 372.972 84.0677 373.192 83.2107 373.192C82.5857 373.192 82.0672 373.088 81.6553 372.879C81.2433 372.671 80.9119 372.42 80.6609 372.126C80.4147 371.828 80.223 371.546 80.0857 371.281H79.9365V373H77.4081ZM79.9294 367.545C79.9294 368.251 80.0288 368.869 80.2277 369.399C80.4313 369.929 80.7225 370.344 81.1013 370.642C81.4848 370.936 81.9488 371.082 82.4933 371.082C83.0615 371.082 83.5374 370.931 83.9209 370.628C84.3044 370.32 84.5932 369.901 84.7874 369.371C84.9862 368.836 85.0857 368.227 85.0857 367.545C85.0857 366.868 84.9886 366.267 84.7945 365.741C84.6003 365.216 84.3115 364.804 83.928 364.506C83.5445 364.207 83.0662 364.058 82.4933 364.058C81.9441 364.058 81.4777 364.203 81.0942 364.491C80.7107 364.78 80.4195 365.185 80.2206 365.706C80.0265 366.227 79.9294 366.84 79.9294 367.545Z" fill="white"/>
<path d="M163.435 338.455H166.659L170.977 348.994H171.148L175.466 338.455H178.69V353H176.162V343.007H176.027L172.007 352.957H170.118L166.098 342.986H165.963V353H163.435V338.455ZM184.185 353.22C183.494 353.22 182.871 353.097 182.317 352.851C181.768 352.6 181.332 352.231 181.011 351.743C180.693 351.255 180.535 350.654 180.535 349.939C180.535 349.323 180.648 348.814 180.876 348.412C181.103 348.009 181.413 347.688 181.806 347.446C182.199 347.205 182.642 347.022 183.134 346.899C183.631 346.771 184.145 346.679 184.675 346.622C185.314 346.556 185.833 346.497 186.231 346.445C186.628 346.388 186.917 346.303 187.097 346.189C187.282 346.071 187.374 345.888 187.374 345.642V345.599C187.374 345.064 187.216 344.65 186.898 344.357C186.581 344.063 186.124 343.916 185.528 343.916C184.898 343.916 184.398 344.054 184.029 344.328C183.664 344.603 183.418 344.927 183.29 345.301L180.89 344.96C181.079 344.297 181.392 343.743 181.827 343.298C182.263 342.848 182.796 342.512 183.425 342.29C184.055 342.062 184.751 341.949 185.513 341.949C186.039 341.949 186.562 342.01 187.083 342.134C187.604 342.257 188.08 342.46 188.511 342.744C188.941 343.024 189.287 343.405 189.547 343.888C189.813 344.371 189.945 344.974 189.945 345.699V353H187.474V351.501H187.388C187.232 351.804 187.012 352.089 186.728 352.354C186.448 352.614 186.096 352.825 185.67 352.986C185.248 353.142 184.753 353.22 184.185 353.22ZM184.853 351.331C185.369 351.331 185.816 351.229 186.195 351.026C186.574 350.817 186.865 350.543 187.069 350.202C187.277 349.861 187.381 349.489 187.381 349.087V347.801C187.301 347.867 187.163 347.929 186.969 347.986C186.78 348.043 186.567 348.092 186.33 348.135C186.093 348.178 185.859 348.215 185.627 348.249C185.395 348.282 185.194 348.31 185.023 348.334C184.64 348.386 184.296 348.471 183.993 348.589C183.69 348.708 183.451 348.874 183.276 349.087C183.101 349.295 183.013 349.565 183.013 349.896C183.013 350.37 183.186 350.727 183.532 350.969C183.877 351.21 184.318 351.331 184.853 351.331ZM192.13 353V342.091H194.623V343.909H194.737C194.936 343.279 195.277 342.794 195.76 342.453C196.247 342.107 196.804 341.935 197.429 341.935C197.571 341.935 197.729 341.942 197.905 341.956C198.084 341.965 198.234 341.982 198.352 342.006V344.371C198.243 344.333 198.07 344.3 197.834 344.271C197.602 344.238 197.377 344.222 197.159 344.222C196.69 344.222 196.269 344.323 195.895 344.527C195.525 344.726 195.234 345.003 195.021 345.358C194.808 345.713 194.701 346.123 194.701 346.587V353H192.13Z" fill="white"/>
<path d="M275.303 333H272.49L277.611 318.455H280.864L285.991 333H283.179L279.294 321.438H279.18L275.303 333ZM275.395 327.297H283.065V329.413H275.395V327.297ZM287.394 337.091V322.091H289.922V323.895H290.071C290.204 323.63 290.391 323.348 290.632 323.05C290.874 322.747 291.2 322.489 291.612 322.276C292.024 322.058 292.55 321.949 293.189 321.949C294.032 321.949 294.792 322.164 295.469 322.595C296.151 323.021 296.691 323.653 297.088 324.491C297.491 325.325 297.692 326.348 297.692 327.56C297.692 328.758 297.495 329.776 297.102 330.614C296.709 331.452 296.174 332.091 295.497 332.531C294.82 332.972 294.053 333.192 293.196 333.192C292.571 333.192 292.053 333.088 291.641 332.879C291.229 332.671 290.897 332.42 290.647 332.126C290.4 331.828 290.209 331.546 290.071 331.281H289.965V337.091H287.394ZM289.915 327.545C289.915 328.251 290.014 328.869 290.213 329.399C290.417 329.929 290.708 330.344 291.087 330.642C291.47 330.936 291.934 331.082 292.479 331.082C293.047 331.082 293.523 330.931 293.906 330.628C294.29 330.32 294.579 329.901 294.773 329.371C294.972 328.836 295.071 328.227 295.071 327.545C295.071 326.868 294.974 326.267 294.78 325.741C294.586 325.216 294.297 324.804 293.914 324.506C293.53 324.207 293.052 324.058 292.479 324.058C291.93 324.058 291.463 324.203 291.08 324.491C290.696 324.78 290.405 325.185 290.206 325.706C290.012 326.227 289.915 326.84 289.915 327.545ZM299.494 333V322.091H301.987V323.909H302.1C302.299 323.279 302.64 322.794 303.123 322.453C303.611 322.107 304.167 321.935 304.792 321.935C304.934 321.935 305.093 321.942 305.268 321.956C305.448 321.965 305.597 321.982 305.715 322.006V324.371C305.606 324.333 305.434 324.3 305.197 324.271C304.965 324.238 304.74 324.222 304.522 324.222C304.053 324.222 303.632 324.323 303.258 324.527C302.889 324.726 302.597 325.003 302.384 325.358C302.171 325.713 302.065 326.123 302.065 326.587V333H299.494Z" fill="white"/>
<path d="M388.173 298.455H390.787V308.682C390.782 309.619 390.583 310.427 390.19 311.104C389.797 311.776 389.248 312.295 388.543 312.659C387.842 313.019 387.025 313.199 386.092 313.199C385.24 313.199 384.473 313.047 383.791 312.744C383.114 312.437 382.577 311.982 382.179 311.381C381.781 310.779 381.582 310.031 381.582 309.136H384.203C384.208 309.529 384.293 309.868 384.459 310.152C384.629 310.436 384.864 310.654 385.162 310.805C385.46 310.957 385.804 311.033 386.192 311.033C386.613 311.033 386.971 310.945 387.264 310.77C387.558 310.59 387.78 310.325 387.932 309.974C388.088 309.624 388.169 309.193 388.173 308.682V298.455ZM400.085 308.412V302.091H402.656V313H400.163V311.061H400.05C399.803 311.672 399.399 312.171 398.835 312.56C398.276 312.948 397.587 313.142 396.768 313.142C396.053 313.142 395.421 312.983 394.872 312.666C394.328 312.344 393.901 311.878 393.594 311.267C393.286 310.652 393.132 309.908 393.132 309.037V302.091H395.703V308.639C395.703 309.33 395.892 309.88 396.271 310.287C396.65 310.694 397.147 310.898 397.763 310.898C398.141 310.898 398.508 310.805 398.863 310.621C399.219 310.436 399.51 310.161 399.737 309.797C399.969 309.428 400.085 308.966 400.085 308.412ZM407.471 306.608V313H404.9V302.091H407.357V303.945H407.485C407.736 303.334 408.136 302.848 408.685 302.489C409.239 302.129 409.924 301.949 410.738 301.949C411.491 301.949 412.147 302.11 412.705 302.432C413.269 302.754 413.704 303.22 414.012 303.831C414.325 304.442 414.479 305.183 414.474 306.054V313H411.903V306.452C411.903 305.723 411.713 305.152 411.335 304.74C410.961 304.328 410.442 304.122 409.779 304.122C409.329 304.122 408.929 304.222 408.579 304.42C408.233 304.615 407.961 304.896 407.762 305.266C407.568 305.635 407.471 306.082 407.471 306.608Z" fill="white"/>
<path d="M501.173 278.455H503.787V288.682C503.782 289.619 503.583 290.427 503.19 291.104C502.797 291.776 502.248 292.295 501.543 292.659C500.842 293.019 500.025 293.199 499.092 293.199C498.24 293.199 497.473 293.047 496.791 292.744C496.114 292.437 495.577 291.982 495.179 291.381C494.781 290.779 494.582 290.031 494.582 289.136H497.203C497.208 289.529 497.293 289.868 497.459 290.152C497.629 290.436 497.864 290.654 498.162 290.805C498.46 290.957 498.804 291.033 499.192 291.033C499.613 291.033 499.971 290.945 500.264 290.77C500.558 290.59 500.78 290.325 500.932 289.974C501.088 289.624 501.169 289.193 501.173 288.682V278.455ZM513.085 288.412V282.091H515.656V293H513.163V291.061H513.05C512.803 291.672 512.399 292.171 511.835 292.56C511.276 292.948 510.587 293.142 509.768 293.142C509.053 293.142 508.421 292.983 507.872 292.666C507.328 292.344 506.901 291.878 506.594 291.267C506.286 290.652 506.132 289.908 506.132 289.037V282.091H508.703V288.639C508.703 289.33 508.892 289.88 509.271 290.287C509.65 290.694 510.147 290.898 510.763 290.898C511.141 290.898 511.508 290.805 511.863 290.621C512.219 290.436 512.51 290.161 512.737 289.797C512.969 289.428 513.085 288.966 513.085 288.412ZM520.471 278.455V293H517.9V278.455H520.471Z" fill="white"/>
<defs>
<filter id="filter0_d_1_629" x="395" y="0" width="225" height="396" filterUnits="userSpaceOnUse" color-interpolation-filters="sRGB">
<feFlood flood-opacity="0" result="BackgroundImageFix"/>
<feColorMatrix in="SourceAlpha" type="matrix" values="0 0 0 0 0 0 0 0 0 0 0 0 0 0 0 0 0 0 127 0" result="hardAlpha"/>
<feMorphology radius="12" operator="erode" in="SourceAlpha" result="effect1_dropShadow_1_629"/>
<feOffset dy="16"/>
<feGaussianBlur stdDeviation="40"/>
<feComposite in2="hardAlpha" operator="out"/>
<feColorMatrix type="matrix" values="0 0 0 0 1 0 0 0 0 0.843137 0 0 0 0 0.45098 0 0 0 0.24 0"/>
<feBlend mode="normal" in2="BackgroundImageFix" result="effect1_dropShadow_1_629"/>
<feBlend mode="normal" in="SourceGraphic" in2="effect1_dropShadow_1_629" result="shape"/>
</filter>
<linearGradient id="paint0_linear_1_629" x1="508" y1="312" x2="590.611" y2="282.376" gradientUnits="userSpaceOnUse">
<stop stop-color="#FFC657"/>
<stop offset="1" stop-color="#FFD977"/>
</linearGradient>
</defs>
</svg>
