<svg width="64" height="44" viewBox="0 0 64 44" fill="none" xmlns="http://www.w3.org/2000/svg">
<path fill-rule="evenodd" clip-rule="evenodd" d="M22.25 16C22.25 15.5858 22.5858 15.25 23 15.25H41C41.4142 15.25 41.75 15.5858 41.75 16C41.75 16.4142 41.4142 16.75 41 16.75H23C22.5858 16.75 22.25 16.4142 22.25 16ZM22.25 22C22.25 21.5858 22.5858 21.25 23 21.25H41C41.4142 21.25 41.75 21.5858 41.75 22C41.75 22.4142 41.4142 22.75 41 22.75H23C22.5858 22.75 22.25 22.4142 22.25 22ZM23 27.25C22.5858 27.25 22.25 27.5858 22.25 28C22.25 28.4142 22.5858 28.75 23 28.75H41C41.4142 28.75 41.75 28.4142 41.75 28C41.75 27.5858 41.4142 27.25 41 27.25H23Z" fill="white"/>
</svg>
