<svg width="1110" height="1101" viewBox="0 0 1110 1101" fill="none" xmlns="http://www.w3.org/2000/svg">
<path fill-rule="evenodd" clip-rule="evenodd" d="M418.901 623.902C416.441 623.039 414.015 624.399 411.287 627.005C408.525 629.643 405.165 633.843 400.754 639.357L400.754 639.357L400.711 639.411L367.678 680.702L367.633 680.758C364.286 684.942 361.72 688.15 360.204 690.738C358.687 693.329 358.079 695.536 359.067 697.591C360.055 699.646 362.158 700.55 365.129 700.984C368.097 701.417 372.204 701.417 377.562 701.417H377.562H377.634H387.334C390.183 701.417 392.245 701.418 393.817 701.63C395.368 701.838 396.33 702.238 397.046 702.955C397.762 703.671 398.162 704.632 398.371 706.183C398.582 707.755 398.584 709.817 398.584 712.667V730.624V730.694V730.694C398.584 737.755 398.584 743.133 399.092 746.919C399.594 750.658 400.639 753.235 403.099 754.098C405.56 754.961 407.985 753.601 410.713 750.995C413.475 748.357 416.835 744.157 421.246 738.644L421.29 738.589L454.322 697.298L454.367 697.242L454.367 697.242C457.715 693.058 460.28 689.851 461.796 687.263C463.314 684.672 463.921 682.465 462.934 680.409C461.946 678.354 459.843 677.45 456.871 677.016C453.904 676.584 449.796 676.584 444.438 676.584H444.438H444.366H434.667C431.817 676.584 429.755 676.582 428.183 676.371C426.632 676.162 425.671 675.762 424.955 675.046C424.238 674.33 423.838 673.368 423.63 671.817C423.418 670.245 423.417 668.183 423.417 665.334V647.376V647.307C423.417 640.246 423.417 634.867 422.908 631.082C422.406 627.342 421.362 624.765 418.901 623.902Z" fill="url(#paint0_linear_1_812)"/>
<circle cx="225" cy="689" r="31" stroke="url(#paint1_linear_1_812)" stroke-opacity="0.08" stroke-width="2"/>
<circle cx="225" cy="689" r="50" stroke="url(#paint2_linear_1_812)" stroke-opacity="0.12" stroke-width="4"/>
<circle cx="225" cy="689" r="70" stroke="url(#paint3_linear_1_812)" stroke-opacity="0.16" stroke-width="6"/>
<circle cx="411" cy="506" r="31" transform="rotate(90 411 506)" stroke="url(#paint4_linear_1_812)" stroke-opacity="0.08" stroke-width="2"/>
<circle cx="411" cy="506" r="50" transform="rotate(90 411 506)" stroke="url(#paint5_linear_1_812)" stroke-opacity="0.12" stroke-width="4"/>
<circle cx="411" cy="506" r="70" transform="rotate(90 411 506)" stroke="url(#paint6_linear_1_812)" stroke-opacity="0.16" stroke-width="6"/>
<circle cx="411" cy="872" r="31" transform="rotate(-90 411 872)" stroke="url(#paint7_linear_1_812)" stroke-opacity="0.08" stroke-width="2"/>
<circle cx="411" cy="872" r="50" transform="rotate(-90 411 872)" stroke="url(#paint8_linear_1_812)" stroke-opacity="0.12" stroke-width="4"/>
<circle cx="411" cy="872" r="70" transform="rotate(-90 411 872)" stroke="url(#paint9_linear_1_812)" stroke-opacity="0.16" stroke-width="6"/>
<circle cx="32" cy="32" r="31" transform="matrix(-1 0 0 1 626 657)" stroke="url(#paint10_linear_1_812)" stroke-opacity="0.08" stroke-width="2"/>
<circle cx="52" cy="52" r="50" transform="matrix(-1 0 0 1 646 637)" stroke="url(#paint11_linear_1_812)" stroke-opacity="0.12" stroke-width="4"/>
<circle cx="73" cy="73" r="70" transform="matrix(-1 0 0 1 667 616)" stroke="url(#paint12_linear_1_812)" stroke-opacity="0.16" stroke-width="6"/>
<g filter="url(#filter0_f_1_812)">
<circle cx="420.5" cy="689.5" r="289.5" fill="url(#paint13_radial_1_812)" fill-opacity="0.16"/>
</g>
<defs>
<filter id="filter0_f_1_812" x="-269" y="0" width="1379" height="1379" filterUnits="userSpaceOnUse" color-interpolation-filters="sRGB">
<feFlood flood-opacity="0" result="BackgroundImageFix"/>
<feBlend mode="normal" in="SourceGraphic" in2="BackgroundImageFix" result="shape"/>
<feGaussianBlur stdDeviation="200" result="effect1_foregroundBlur_1_812"/>
</filter>
<linearGradient id="paint0_linear_1_812" x1="411.589" y1="754.357" x2="475.967" y2="700.272" gradientUnits="userSpaceOnUse">
<stop stop-color="#FFC657"/>
<stop offset="1" stop-color="#FFD977"/>
</linearGradient>
<linearGradient id="paint1_linear_1_812" x1="257" y1="689" x2="193" y2="689" gradientUnits="userSpaceOnUse">
<stop stop-color="white"/>
<stop offset="0.621142" stop-color="white" stop-opacity="0"/>
</linearGradient>
<linearGradient id="paint2_linear_1_812" x1="277" y1="689" x2="173" y2="689" gradientUnits="userSpaceOnUse">
<stop stop-color="white"/>
<stop offset="0.635367" stop-color="white" stop-opacity="0"/>
</linearGradient>
<linearGradient id="paint3_linear_1_812" x1="298" y1="689" x2="152" y2="689" gradientUnits="userSpaceOnUse">
<stop stop-color="white"/>
<stop offset="0.589761" stop-color="white" stop-opacity="0"/>
</linearGradient>
<linearGradient id="paint4_linear_1_812" x1="443" y1="506" x2="379" y2="506" gradientUnits="userSpaceOnUse">
<stop stop-color="white"/>
<stop offset="0.621142" stop-color="white" stop-opacity="0"/>
</linearGradient>
<linearGradient id="paint5_linear_1_812" x1="463" y1="506" x2="359" y2="506" gradientUnits="userSpaceOnUse">
<stop stop-color="white"/>
<stop offset="0.635367" stop-color="white" stop-opacity="0"/>
</linearGradient>
<linearGradient id="paint6_linear_1_812" x1="484" y1="506" x2="338" y2="506" gradientUnits="userSpaceOnUse">
<stop stop-color="white"/>
<stop offset="0.589761" stop-color="white" stop-opacity="0"/>
</linearGradient>
<linearGradient id="paint7_linear_1_812" x1="443" y1="872" x2="379" y2="872" gradientUnits="userSpaceOnUse">
<stop stop-color="white"/>
<stop offset="0.621142" stop-color="white" stop-opacity="0"/>
</linearGradient>
<linearGradient id="paint8_linear_1_812" x1="463" y1="872" x2="359" y2="872" gradientUnits="userSpaceOnUse">
<stop stop-color="white"/>
<stop offset="0.635367" stop-color="white" stop-opacity="0"/>
</linearGradient>
<linearGradient id="paint9_linear_1_812" x1="484" y1="872" x2="338" y2="872" gradientUnits="userSpaceOnUse">
<stop stop-color="white"/>
<stop offset="0.589761" stop-color="white" stop-opacity="0"/>
</linearGradient>
<linearGradient id="paint10_linear_1_812" x1="64" y1="32" x2="0" y2="32" gradientUnits="userSpaceOnUse">
<stop stop-color="white"/>
<stop offset="0.621142" stop-color="white" stop-opacity="0"/>
</linearGradient>
<linearGradient id="paint11_linear_1_812" x1="104" y1="52" x2="0" y2="52" gradientUnits="userSpaceOnUse">
<stop stop-color="white"/>
<stop offset="0.635367" stop-color="white" stop-opacity="0"/>
</linearGradient>
<linearGradient id="paint12_linear_1_812" x1="146" y1="73" x2="0" y2="73" gradientUnits="userSpaceOnUse">
<stop stop-color="white"/>
<stop offset="0.589761" stop-color="white" stop-opacity="0"/>
</linearGradient>
<radialGradient id="paint13_radial_1_812" cx="0" cy="0" r="1" gradientUnits="userSpaceOnUse" gradientTransform="translate(420.5 689.5) rotate(-33.2177) scale(224.987)">
<stop stop-color="#FFA877"/>
<stop offset="1" stop-color="#FFD977" stop-opacity="0"/>
</radialGradient>
</defs>
</svg>
